<svg width="20" height="20" fill="none" xmlns="http://www.w3.org/2000/svg"><g id="Risk Status / Shield check"><path id="Vector" fill-rule="evenodd" clip-rule="evenodd" d="M2.02596 4.77629C4.97284 4.73965 7.80628 3.63471 9.99999 1.66669C12.1935 3.63507 15.027 4.74039 17.974 4.77731C18.086 5.43893 18.143 6.1209 18.143 6.81408C18.143 12.1325 14.7433 16.6569 9.99999 18.3334C5.25669 16.6559 1.85699 12.1314 1.85699 6.81306C1.85699 6.11887 1.91501 5.43893 2.02596 4.77629ZM13.7732 8.55057C13.9587 8.35859 14.0613 8.10148 14.0589 7.83459C14.0566 7.56771 13.9496 7.31242 13.7608 7.12369C13.5721 6.93497 13.3168 6.82792 13.0499 6.8256C12.7831 6.82328 12.5259 6.92588 12.334 7.11129L8.98211 10.4632L7.666 9.14704C7.47403 8.96163 7.21691 8.85903 6.95003 8.86135C6.68314 8.86367 6.42785 8.97072 6.23913 9.15944C6.0504 9.34816 5.94336 9.60346 5.94104 9.87034C5.93872 10.1372 6.04131 10.3943 6.22673 10.5863L8.26248 12.6221C8.45335 12.8129 8.71221 12.9201 8.98211 12.9201C9.25202 12.9201 9.51087 12.8129 9.70175 12.6221L13.7732 8.55057Z" fill="#00826E"/></g></svg>