<svg width="20" height="20" fill="none" xmlns="http://www.w3.org/2000/svg"><g id="Risk Status / Shield X"><path id="Subtract" fill-rule="evenodd" clip-rule="evenodd" d="M9.99999 1.66669C7.80628 3.63471 4.97284 4.73965 2.02596 4.77629C1.91501 5.43893 1.85699 6.11887 1.85699 6.81306C1.85699 12.1314 5.25669 16.6559 9.99999 18.3334C14.7433 16.6569 18.143 12.1325 18.143 6.81408C18.143 6.1209 18.086 5.43893 17.974 4.77731C15.027 4.74039 12.1935 3.63507 9.99999 1.66669ZM7.44466 6.9427C7.21221 6.73349 6.83532 6.73349 6.60287 6.9427C6.37041 7.15191 6.37041 7.4911 6.60287 7.70031L9.15816 10.0001L6.60287 12.2998C6.37041 12.5091 6.37041 12.8482 6.60287 13.0575C6.83532 13.2667 7.21221 13.2667 7.44466 13.0575L9.99996 10.7577L12.5552 13.0575C12.7877 13.2667 13.1646 13.2667 13.397 13.0575C13.6295 12.8482 13.6295 12.5091 13.397 12.2998L10.8418 10.0001L13.397 7.70031C13.6295 7.4911 13.6295 7.15191 13.397 6.9427C13.1646 6.73349 12.7877 6.73349 12.5552 6.9427L9.99996 9.24246L7.44466 6.9427Z" fill="#DB4446"/></g></svg>